<svg xmlns="http://www.w3.org/2000/svg" xmlns:xlink="http://www.w3.org/1999/xlink" width="220.713" height="44" viewBox="0 0 220.713 44">
  <defs>
    <clipPath id="clip-path">
      <rect id="Rectangle_1562" data-name="Rectangle 1562" width="220.713" height="44" fill="#132f43"/>
    </clipPath>
  </defs>
  <g id="Group_2326" data-name="Group 2326" transform="translate(0 0)">
    <g id="Group_2325" data-name="Group 2325" transform="translate(0 0)" clip-path="url(#clip-path)">
      <path id="Path_7735" data-name="Path 7735" d="M55.892,10.267c0-.44-.153-.525-.551-.517-1.179.021-2.36.029-3.539,0a.893.893,0,0,0-.906.529C48.781,13.857,46.642,17.427,44.51,21c-.378.634-.382.634-.763,0q-3.2-5.356-6.4-10.719a.9.9,0,0,0-.9-.537c-1.179.036-2.36.026-3.54.006-.423-.008-.581.091-.581.561q.025,10.452,0,20.906c0,.508.19.595.634.585,1.156-.026,2.316-.042,3.47,0,.595.024.763-.132.758-.743-.029-4.253-.017-8.506-.012-12.761a1.206,1.206,0,0,1,.108-.743c.18.308.331.557.476.81,1.358,2.349,2.721,4.7,4.062,7.054a.829.829,0,0,0,.854.493c.928-.03,1.861-.035,2.789,0a.922.922,0,0,0,.962-.548c1.4-2.483,2.826-4.948,4.25-7.415.083-.146.108-.35.4-.428v.525c0,4.367.008,8.734-.011,13.1,0,.494.106.67.636.654,1.2-.041,2.406-.03,3.607,0,.435.009.582-.1.581-.563q-.02-10.486,0-20.972" transform="translate(16.703 5.035)" fill="#132f43"/>
      <path id="Path_7736" data-name="Path 7736" d="M104.682,13.02a5.659,5.659,0,0,0-3.712.822,5,5,0,0,0-2.049,3.131c-.3-.937-.581-1.863-.792-2.8-.121-.54-.329-.778-.939-.743-1.063.062-2.131.017-3.2.017-.881,0-.93.017-.652.865a19.8,19.8,0,0,1,.828,6.477c-.061,5.271-.014,10.542-.03,15.814,0,.514.1.71.663.687,1.179-.045,2.36-.039,3.539,0,.49.015.6-.144.593-.608-.023-2.351-.011-4.7-.011-7.167.185.086.285.126.379.179a7.749,7.749,0,0,0,10.112-2.224,10.73,10.73,0,0,0-.047-11.766,6.235,6.235,0,0,0-4.684-2.677m1.213,11.491c-1.226,2.98-4.5,3.156-6.572,1.618a.894.894,0,0,1-.372-.813c.017-1.174.006-2.349.006-3.523,0-1.107.024-2.214-.011-3.32a1.1,1.1,0,0,1,.526-1.013,4.151,4.151,0,0,1,6.486,1.89,6.912,6.912,0,0,1-.064,5.162" transform="translate(48.157 6.714)" fill="#132f43"/>
      <path id="Path_7737" data-name="Path 7737" d="M90.923,13.114c-3.175-.444-6.063.237-8.166,2.8-2.307,2.806-2.51,6.056-1.321,9.351A7.863,7.863,0,0,0,88.359,30.6,10.3,10.3,0,0,0,96.8,28.267c.337-.293.4-.5.133-.884-.534-.757-1.033-1.541-1.508-2.336-.229-.385-.361-.376-.684-.076a6.768,6.768,0,0,1-5.638,1.784,4.245,4.245,0,0,1-3.7-3.047c-.218-.757-.184-.808.59-.808q2.721,0,5.444,0c1.882,0,3.766,0,5.648,0,.328,0,.56-.024.6-.441.394-4.553-1.681-8.633-6.757-9.346m1.439,7.367H89.236c-1.156,0-2.31-.009-3.466,0-.341,0-.482-.07-.443-.457a3.854,3.854,0,0,1,3.7-3.354,3.638,3.638,0,0,1,4.132,2.815c.209.934.164.99-.8.99" transform="translate(41.714 6.712)" fill="#132f43"/>
      <path id="Path_7738" data-name="Path 7738" d="M129.88,13.021c-5.33.014-9.067,3.648-9.067,8.82s3.756,8.811,9.073,8.823c5.3.011,9.093-3.657,9.105-8.8.012-5.186-3.772-8.861-9.111-8.847m3.988,11.336a4.294,4.294,0,0,1-7.957-.067,6.426,6.426,0,0,1-.08-4.707,4.245,4.245,0,0,1,4.211-2.935,4.328,4.328,0,0,1,4.03,3.193,5.87,5.87,0,0,1,.275,1.984,5.435,5.435,0,0,1-.478,2.531" transform="translate(62.433 6.729)" fill="#132f43"/>
      <path id="Path_7739" data-name="Path 7739" d="M149.653,14.336a6.355,6.355,0,0,0-6.428-.855,6.045,6.045,0,0,0-3.347,3.836,2.707,2.707,0,0,1-.218-.482c-.2-.948-.4-1.9-.579-2.852a.56.56,0,0,0-.673-.543c-1.179.032-2.36.046-3.537,0-.634-.027-.746.112-.59.739a16.793,16.793,0,0,1,.878,4.294c-.049,3.663,0,7.328-.029,10.991,0,.541.152.692.686.673,1.156-.039,2.315-.039,3.469,0,.532.018.637-.17.634-.66-.021-3.279-.011-6.559-.011-9.836,0-1.508.212-1.829,1.623-2.409a5.015,5.015,0,0,1,1.649-.381c2.365-.126,3.4.843,3.4,3.175,0,3.167.009,6.333-.011,9.5,0,.472.13.623.61.61,1.2-.032,2.4-.029,3.607,0,.458.011.569-.149.567-.584-.015-3.889,0-7.78-.014-11.669a4.218,4.218,0,0,0-1.687-3.543" transform="translate(69.359 6.707)" fill="#132f43"/>
      <path id="Path_7740" data-name="Path 7740" d="M71.788,15.045a6.007,6.007,0,0,0-5.717-1.973,5.342,5.342,0,0,0-4.447,3.543,1.65,1.65,0,0,1-.367.786c-.273-1.179-.558-2.315-.786-3.463-.079-.4-.229-.513-.622-.5-1.179.024-2.36.008-3.539.008-.805,0-.78,0-.593.8a17.779,17.779,0,0,1,.862,4.229c-.044,3.642,0,7.284-.027,10.925,0,.538.1.757.7.73,1.11-.05,2.225-.046,3.335,0,.558.023.725-.126.72-.7-.027-3.258-.014-6.515-.014-9.773,0-1.5.211-1.825,1.615-2.418a4.967,4.967,0,0,1,1.646-.393c2.39-.15,3.449.836,3.449,3.2,0,3.144.012,6.289-.011,9.433,0,.5.124.663.643.646,1.179-.039,2.36-.026,3.54-.006.382.008.569-.049.566-.5-.02-4.026-.012-8.053-.021-12.078a3.773,3.773,0,0,0-.931-2.494" transform="translate(28.737 6.713)" fill="#132f43"/>
      <path id="Path_7741" data-name="Path 7741" d="M83.145,24.13a7.294,7.294,0,0,1-3.158,2.131c-2.5.828-4.678.158-5.832-1.811a5.315,5.315,0,0,1-.626-3.536,4.474,4.474,0,0,1,5.025-3.9,6.671,6.671,0,0,1,4.12,2.037c.42.443.582.325.852-.106.49-.786.995-1.568,1.556-2.3.349-.455.241-.7-.146-1.048a10.334,10.334,0,0,0-6.957-2.622c-6.783-.127-10.041,5.444-8.991,10.7a8.293,8.293,0,0,0,8.027,6.915,10.645,10.645,0,0,0,8.025-2.674c.193-.17.457-.3.208-.654-.708-1.019-1.385-2.06-2.1-3.134" transform="translate(35.551 6.704)" fill="#132f43"/>
      <path id="Path_7742" data-name="Path 7742" d="M117.959,16.033c.015-.387-.118-.507-.5-.5-1.224.02-2.45-.018-3.674.02-.5.015-.654-.109-.645-.629.032-1.987.012-3.975.012-5.981-.115-.009-.143-.02-.156-.012a28.887,28.887,0,0,1-2.982,1.755,2.391,2.391,0,0,0-1.634,2.876c.1.611.229,1.461-.089,1.834-.372.434-1.236.147-1.881.129-.548-.015-.746.158-.663.684a2.818,2.818,0,0,1,0,.34c.011.631-.22,1.471.1,1.84.37.428,1.238.137,1.885.124.517-.009.686.109.68.661-.027,2.917-.047,5.833.008,8.75a4.43,4.43,0,0,0,2.924,4.462A8.135,8.135,0,0,0,117,32.273a.444.444,0,0,0,.343-.5c-.011-.858-.012-1.719,0-2.577,0-.317-.094-.385-.4-.294a4.465,4.465,0,0,1-2.283.124,1.693,1.693,0,0,1-1.5-1.8c-.014-2.736.008-5.473-.017-8.207,0-.461.179-.5.555-.5,1.247.018,2.5-.012,3.742.017.432.011.545-.132.525-.54-.032-.654-.029-1.31,0-1.966" transform="translate(54.61 4.615)" fill="#132f43"/>
      <path id="Path_7743" data-name="Path 7743" d="M55.121,21.648c0-2.58-.015-5.159.014-7.739.006-.519-.141-.645-.643-.628-1.18.038-2.36.027-3.54,0-.419-.009-.6.068-.595.546q.027,7.806,0,15.612c0,.428.141.537.548.529,1.18-.023,2.362-.033,3.54,0,.517.017.695-.1.687-.658-.032-2.556-.014-5.113-.014-7.67" transform="translate(26.023 6.863)" fill="#132f43"/>
      <path id="Path_7744" data-name="Path 7744" d="M120.376,21.648c0-2.557-.02-5.113.015-7.67.008-.581-.173-.727-.725-.695-.813.046-1.632.011-2.45.011-1.6,0-1.6,0-1.6,1.558,0,4.819.009,9.638-.012,14.456,0,.543.149.689.681.67,1.133-.041,2.269-.036,3.4,0,.508.014.705-.089.7-.658-.035-2.557-.015-5.113-.015-7.67" transform="translate(59.743 6.863)" fill="#132f43"/>
      <path id="Path_7745" data-name="Path 7745" d="M118.193,7.49a2.975,2.975,0,1,0,.011,5.95,2.975,2.975,0,0,0-.011-5.95" transform="translate(59.537 3.871)" fill="#132f43"/>
      <path id="Path_7746" data-name="Path 7746" d="M52.971,7.49a2.975,2.975,0,1,0,2.944,3,2.957,2.957,0,0,0-2.944-3" transform="translate(25.827 3.871)" fill="#132f43"/>
      <path id="Path_7747" data-name="Path 7747" d="M11.111,0H.02V11.115l7.658,7.658,11.1-11.1Z" transform="translate(0.01 0)" fill="#65d08d"/>
      <path id="Path_7748" data-name="Path 7748" d="M23.476,12.382l-11.1,11.08,7.684,7.682,0,0,11.048,0,0-6.4v-4.71Z" transform="translate(6.397 6.399)" fill="#65d08d"/>
      <path id="Path_7749" data-name="Path 7749" d="M26.428.02,7.688,18.762.03,11.1,0,37.5l11.113,0L29.874,18.769l7.638,7.651.03-26.4Z" transform="translate(0 0.011)" fill="#132f43"/>
    </g>
  </g>
</svg>
